<svg width="151" height="16" viewBox="0 0 151 16" fill="none" xmlns="http://www.w3.org/2000/svg">
<path d="M12.592 12.672H11.184V8C11.184 7.12534 11.04 6.48 10.752 6.064C10.4747 5.648 10.0587 5.44 9.504 5.44C8.93867 5.44 8.42667 5.648 7.968 6.064C7.50933 6.46934 7.184 6.99734 6.992 7.648V12.672H5.584V8C5.584 7.11467 5.44533 6.46934 5.168 6.064C4.89067 5.648 4.47467 5.44 3.92 5.44C3.36533 5.44 2.85333 5.64267 2.384 6.048C1.92533 6.44267 1.6 6.97067 1.408 7.632V12.672H0V4.32H1.28V6.112C1.62133 5.49334 2.064 5.01867 2.608 4.688C3.152 4.34667 3.76533 4.176 4.448 4.176C5.14133 4.176 5.696 4.368 6.112 4.752C6.528 5.12534 6.784 5.61067 6.88 6.208C7.62667 4.85334 8.688 4.176 10.064 4.176C10.704 4.176 11.2053 4.33067 11.568 4.64C11.9413 4.93867 12.2027 5.35467 12.352 5.888C12.512 6.41067 12.592 7.008 12.592 7.68V12.672Z" fill="#21354D"/>
<path d="M14.1252 10.256C14.1252 9.72267 14.2746 9.26401 14.5733 8.88C14.8826 8.48534 15.3039 8.18134 15.8372 7.968C16.3706 7.75467 16.9893 7.648 17.6933 7.648C18.0666 7.648 18.4613 7.68 18.8773 7.744C19.2933 7.79734 19.6613 7.88267 19.9813 8V7.392C19.9813 6.752 19.7893 6.25067 19.4053 5.888C19.0213 5.51467 18.4773 5.328 17.7733 5.328C17.3146 5.328 16.8719 5.41334 16.4452 5.584C16.0292 5.744 15.5866 5.97867 15.1173 6.288L14.6053 5.296C15.1493 4.92267 15.6932 4.64534 16.2372 4.464C16.7812 4.272 17.3466 4.176 17.9333 4.176C18.9999 4.176 19.8426 4.47467 20.4613 5.072C21.0799 5.65867 21.3892 6.48 21.3892 7.53601V11.072C21.3892 11.4027 21.5386 11.5733 21.8373 11.584V12.672C21.6986 12.6933 21.5759 12.7093 21.4693 12.72C21.3733 12.7307 21.2932 12.736 21.2292 12.736C20.8986 12.736 20.6479 12.6453 20.4773 12.464C20.3173 12.2827 20.2266 12.0907 20.2053 11.888L20.1733 11.36C19.8106 11.8293 19.3359 12.192 18.7493 12.448C18.1626 12.704 17.5813 12.832 17.0053 12.832C16.4506 12.832 15.9546 12.72 15.5173 12.496C15.0799 12.2613 14.7386 11.952 14.4932 11.568C14.2479 11.1733 14.1252 10.736 14.1252 10.256ZM19.5653 10.848C19.6933 10.6987 19.7946 10.5493 19.8693 10.4C19.9439 10.24 19.9813 10.1067 19.9813 10V8.96C19.2986 8.69334 18.5946 8.56001 17.8692 8.56001C17.1546 8.56001 16.5732 8.704 16.1252 8.992C15.6879 9.26934 15.4692 9.65334 15.4692 10.144C15.4692 10.4107 15.5386 10.672 15.6772 10.928C15.8266 11.1733 16.0399 11.376 16.3173 11.536C16.6053 11.696 16.9573 11.776 17.3733 11.776C17.8106 11.776 18.2266 11.6907 18.6213 11.52C19.0159 11.3387 19.3306 11.1147 19.5653 10.848Z" fill="#21354D"/>
<path d="M24.2646 4.32L26.4726 7.392L26.6006 7.648L26.7446 7.392L28.9366 4.32H30.5046L27.4166 8.512L30.5206 12.672H28.9526L26.7446 9.616L26.6006 9.376L26.4726 9.616L24.2646 12.672H22.6966L25.8006 8.512L22.7126 4.32H24.2646Z" fill="#21354D"/>
<path d="M31.8438 2.752V0.992004H33.2517V2.752H31.8438ZM31.8438 12.672V4.32H33.2517V12.672H31.8438Z" fill="#21354D"/>
<path d="M39.1792 12.832C38.3472 12.832 37.6112 12.6347 36.9712 12.24C36.3419 11.8347 35.8512 11.3067 35.4992 10.656C35.1472 9.99467 34.9712 9.28 34.9712 8.512C34.9712 7.73334 35.1472 7.01867 35.4992 6.368C35.8619 5.70667 36.3579 5.17867 36.9872 4.784C37.6272 4.37867 38.3579 4.176 39.1792 4.176C40.0112 4.176 40.7419 4.37867 41.3713 4.784C42.0113 5.17867 42.5072 5.70667 42.8592 6.368C43.2219 7.01867 43.4032 7.73334 43.4032 8.512C43.4032 9.28 43.2219 9.99467 42.8592 10.656C42.5072 11.3067 42.0166 11.8347 41.3872 12.24C40.7579 12.6347 40.0219 12.832 39.1792 12.832ZM36.4112 8.528C36.4112 9.104 36.5339 9.62667 36.7792 10.096C37.0352 10.5653 37.3712 10.9387 37.7872 11.216C38.2032 11.4827 38.6672 11.616 39.1792 11.616C39.6912 11.616 40.1552 11.4773 40.5712 11.2C40.9979 10.9227 41.3339 10.5493 41.5793 10.08C41.8353 9.6 41.9632 9.072 41.9632 8.496C41.9632 7.92 41.8353 7.39734 41.5793 6.928C41.3339 6.45867 40.9979 6.08534 40.5712 5.808C40.1552 5.53067 39.6912 5.392 39.1792 5.392C38.6672 5.392 38.2032 5.536 37.7872 5.824C37.3712 6.10134 37.0352 6.47467 36.7792 6.944C36.5339 7.41334 36.4112 7.94134 36.4112 8.528Z" fill="#21354D"/>
<path d="M52.3574 12.672H50.9494V8C50.9494 7.11467 50.8107 6.46934 50.5334 6.064C50.2667 5.648 49.856 5.44 49.3014 5.44C48.9174 5.44 48.5334 5.536 48.1494 5.728C47.776 5.92 47.44 6.18134 47.1414 6.512C46.8534 6.832 46.6454 7.20534 46.5174 7.632V12.672H45.1094V4.32H46.3894V6.112C46.72 5.52534 47.1947 5.056 47.8134 4.704C48.4427 4.352 49.1254 4.176 49.8614 4.176C50.512 4.176 51.0134 4.33067 51.3654 4.64C51.728 4.93867 51.984 5.35467 52.1334 5.888C52.2827 6.41067 52.3574 7.008 52.3574 7.68V12.672Z" fill="#21354D"/>
<path d="M60.1149 3.024C60.9042 3.024 61.6509 3.168 62.3549 3.456C63.0589 3.73334 63.6829 4.13867 64.2269 4.672C64.7709 5.20534 65.1975 5.85067 65.5069 6.608C65.8269 7.35467 65.9869 8.192 65.9869 9.12C65.9869 9.30134 65.9709 9.54667 65.9389 9.856C65.9175 10.1653 65.8642 10.496 65.7789 10.848C65.6935 11.2 65.5655 11.536 65.3949 11.856C65.2242 12.1653 64.9895 12.4213 64.6909 12.624C64.4029 12.8267 64.0402 12.928 63.6029 12.928C63.2402 12.928 62.9629 12.8587 62.7709 12.72C62.5789 12.5813 62.4455 12.4053 62.3709 12.192C62.2962 11.968 62.2429 11.7387 62.2109 11.504C61.9122 11.824 61.5229 12.096 61.0429 12.32C60.5735 12.5333 60.0562 12.64 59.4909 12.64C58.7122 12.64 58.1095 12.432 57.6829 12.016C57.2669 11.6 57.0589 11.0827 57.0589 10.464C57.0589 9.89867 57.2082 9.456 57.5069 9.136C57.8055 8.816 58.1842 8.58667 58.6429 8.448C59.1122 8.30934 59.5815 8.24 60.0509 8.24C60.5095 8.24 60.9095 8.288 61.2509 8.384C61.5922 8.46934 61.8482 8.544 62.0189 8.608C62.0189 8.13867 61.9655 7.728 61.8589 7.376C61.7522 7.01334 61.5549 6.73067 61.2669 6.528C60.9895 6.32534 60.5949 6.224 60.0829 6.224C59.6562 6.224 59.2562 6.29334 58.8829 6.432C58.5095 6.56 58.1735 6.736 57.8749 6.96L57.5549 6.176C57.9389 5.92 58.3549 5.72267 58.8029 5.584C59.2509 5.43467 59.7202 5.36 60.2109 5.36C60.8402 5.36 61.3362 5.46134 61.6989 5.664C62.0615 5.856 62.3282 6.11734 62.4989 6.448C62.6695 6.768 62.7815 7.12534 62.8349 7.52C62.8882 7.904 62.9149 8.28267 62.9149 8.656V10.56C62.9149 11.0293 62.9575 11.424 63.0429 11.744C63.1389 12.064 63.3682 12.224 63.7309 12.224C64.0509 12.224 64.3122 12.1173 64.5149 11.904C64.7282 11.68 64.8882 11.4027 64.9949 11.072C65.1122 10.7307 65.1922 10.384 65.2349 10.032C65.2882 9.66934 65.3149 9.35467 65.3149 9.08801C65.3149 8.32001 65.1815 7.61067 64.9149 6.96C64.6589 6.29867 64.2962 5.72267 63.8269 5.232C63.3575 4.74134 62.8029 4.35734 62.1629 4.08C61.5335 3.80267 60.8402 3.664 60.0829 3.664C59.3469 3.664 58.6589 3.79734 58.0189 4.064C57.3789 4.32 56.8189 4.688 56.3389 5.168C55.8695 5.648 55.4962 6.21334 55.2189 6.864C54.9522 7.51467 54.8189 8.224 54.8189 8.992C54.8189 9.73867 54.9469 10.4373 55.2029 11.088C55.4589 11.7387 55.8162 12.3093 56.2749 12.8C56.7335 13.2907 57.2775 13.6747 57.9069 13.952C58.5362 14.2293 59.2242 14.368 59.9709 14.368C60.4402 14.368 60.8669 14.3093 61.2509 14.192C61.6455 14.0853 62.0402 13.9413 62.4349 13.76L62.6589 14.368C62.2322 14.5813 61.7895 14.7413 61.3309 14.848C60.8722 14.9547 60.4135 15.008 59.9549 15.008C59.1549 15.008 58.4029 14.8587 57.6989 14.56C57.0055 14.272 56.3922 13.856 55.8589 13.312C55.3255 12.7787 54.9042 12.144 54.5949 11.408C54.2962 10.672 54.1469 9.86667 54.1469 8.992C54.1469 8.07467 54.3069 7.248 54.6269 6.512C54.9575 5.776 55.4002 5.152 55.9549 4.64C56.5202 4.11734 57.1602 3.71734 57.8749 3.44C58.5895 3.16267 59.3362 3.024 60.1149 3.024ZM61.0269 11.456C61.4429 11.264 61.7095 11.0347 61.8269 10.768C61.9442 10.4907 62.0029 10.2133 62.0029 9.936V9.344C61.8642 9.32267 61.6189 9.25867 61.2669 9.152C60.9255 9.04534 60.5149 8.992 60.0349 8.992C59.6722 8.992 59.3309 9.03467 59.0109 9.12C58.7015 9.20534 58.4509 9.35467 58.2589 9.568C58.0669 9.77067 57.9709 10.048 57.9709 10.4C57.9709 10.7947 58.1149 11.1307 58.4029 11.408C58.6909 11.6747 59.0749 11.808 59.5549 11.808C59.8109 11.808 60.0669 11.776 60.3229 11.712C60.5895 11.6373 60.8242 11.552 61.0269 11.456Z" fill="#21354D"/>
<path d="M71.6804 12.832C70.8484 12.832 70.1124 12.6347 69.4724 12.24C68.8324 11.8347 68.331 11.3013 67.9684 10.64C67.6057 9.97867 67.4244 9.25867 67.4244 8.48C67.4244 7.69067 67.6004 6.97067 67.9524 6.32C68.3044 5.66934 68.8004 5.152 69.4404 4.768C70.0804 4.37334 70.8217 4.176 71.6644 4.176C72.4857 4.176 73.2004 4.36267 73.8084 4.736C74.427 5.09867 74.8857 5.58934 75.1844 6.208L73.8084 6.64001C73.595 6.24534 73.2964 5.94134 72.9124 5.728C72.5284 5.504 72.1017 5.392 71.6324 5.392C71.1204 5.392 70.651 5.52534 70.2244 5.792C69.8084 6.05867 69.4777 6.42667 69.2324 6.896C68.987 7.35467 68.8644 7.88267 68.8644 8.48C68.8644 9.06667 68.987 9.6 69.2324 10.08C69.4884 10.5493 69.8244 10.9227 70.2404 11.2C70.667 11.4773 71.1364 11.616 71.6484 11.616C71.979 11.616 72.2937 11.5573 72.5924 11.44C72.9017 11.3227 73.1684 11.168 73.3924 10.976C73.627 10.7733 73.787 10.5547 73.8724 10.32L75.2484 10.736C75.003 11.344 74.555 11.8453 73.9044 12.24C73.2644 12.6347 72.523 12.832 71.6804 12.832Z" fill="#21354D"/>
<path d="M79.7077 12.832C79.0144 12.832 78.3637 12.72 77.7557 12.496C77.1477 12.2613 76.6251 11.9147 76.1878 11.456L76.7318 10.464C77.2118 10.912 77.6917 11.232 78.1717 11.424C78.6517 11.616 79.1424 11.712 79.6437 11.712C80.2197 11.712 80.6891 11.6053 81.0518 11.392C81.4144 11.168 81.5957 10.8427 81.5957 10.416C81.5957 10.1067 81.4997 9.87734 81.3077 9.728C81.1264 9.57867 80.8651 9.456 80.5238 9.36C80.1824 9.25334 79.7771 9.136 79.3077 9.008C78.4437 8.76267 77.7824 8.47467 77.3237 8.144C76.8757 7.80267 76.6517 7.30667 76.6517 6.656C76.6517 5.86667 76.9504 5.25867 77.5477 4.832C78.1557 4.39467 78.9291 4.176 79.8678 4.176C81.1264 4.176 82.1184 4.55467 82.8438 5.312L82.2038 6.288C81.5531 5.616 80.7478 5.28 79.7878 5.28C79.4998 5.28 79.2171 5.31734 78.9398 5.392C78.6624 5.456 78.4331 5.57867 78.2517 5.76C78.0704 5.93067 77.9798 6.176 77.9798 6.496C77.9798 6.89067 78.1397 7.17334 78.4597 7.344C78.7797 7.51467 79.2491 7.69067 79.8678 7.872C80.4971 8.05334 81.0411 8.23467 81.4997 8.416C81.9691 8.59734 82.3317 8.832 82.5877 9.12C82.8437 9.408 82.9717 9.808 82.9717 10.32C82.9717 11.1093 82.6731 11.728 82.0758 12.176C81.4784 12.6133 80.6891 12.832 79.7077 12.832Z" fill="#21354D"/>
<path d="M84.5443 12.672V10.88H85.7282V12.672H84.5443Z" fill="#21354D"/>
<path d="M91.2741 12.832C90.4421 12.832 89.7061 12.6347 89.0661 12.24C88.4261 11.8347 87.9248 11.3013 87.5621 10.64C87.1995 9.97867 87.0181 9.25867 87.0181 8.48C87.0181 7.69067 87.1941 6.97067 87.5461 6.32C87.8981 5.66934 88.3941 5.152 89.0341 4.768C89.6741 4.37334 90.4155 4.176 91.2581 4.176C92.0795 4.176 92.7941 4.36267 93.4021 4.736C94.0208 5.09867 94.4795 5.58934 94.7781 6.208L93.4021 6.64001C93.1888 6.24534 92.8901 5.94134 92.5061 5.728C92.1221 5.504 91.6955 5.392 91.2261 5.392C90.7141 5.392 90.2448 5.52534 89.8181 5.792C89.4021 6.05867 89.0715 6.42667 88.8261 6.896C88.5808 7.35467 88.4581 7.88267 88.4581 8.48C88.4581 9.06667 88.5808 9.6 88.8261 10.08C89.0821 10.5493 89.4181 10.9227 89.8341 11.2C90.2608 11.4773 90.7301 11.616 91.2421 11.616C91.5728 11.616 91.8875 11.5573 92.1861 11.44C92.4955 11.3227 92.7621 11.168 92.9861 10.976C93.2208 10.7733 93.3808 10.5547 93.4661 10.32L94.8421 10.736C94.5968 11.344 94.1488 11.8453 93.4981 12.24C92.8581 12.6347 92.1168 12.832 91.2741 12.832Z" fill="#21354D"/>
<path d="M109.029 12.672H107.621V8C107.621 7.12534 107.477 6.48 107.189 6.064C106.912 5.648 106.496 5.44 105.941 5.44C105.376 5.44 104.864 5.648 104.406 6.064C103.947 6.46934 103.621 6.99734 103.429 7.648V12.672H102.021V8C102.021 7.11467 101.883 6.46934 101.605 6.064C101.328 5.648 100.912 5.44 100.357 5.44C99.8028 5.44 99.2908 5.64267 98.8215 6.048C98.3628 6.44267 98.0375 6.97067 97.8455 7.632V12.672H96.4375V4.32H97.7175V6.112C98.0588 5.49334 98.5015 5.01867 99.0455 4.688C99.5895 4.34667 100.203 4.176 100.885 4.176C101.579 4.176 102.133 4.368 102.549 4.752C102.965 5.12534 103.221 5.61067 103.317 6.208C104.064 4.85334 105.125 4.176 106.501 4.176C107.141 4.176 107.643 4.33067 108.006 4.64C108.379 4.93867 108.64 5.35467 108.789 5.888C108.949 6.41067 109.029 7.008 109.029 7.68V12.672Z" fill="#21354D"/>
<path d="M111.139 9.328V4.32H112.547V9.056C112.547 10.7627 113.139 11.616 114.323 11.616C114.899 11.616 115.437 11.4347 115.939 11.072C116.451 10.6987 116.829 10.192 117.075 9.552V4.32H118.483V11.072C118.483 11.4027 118.632 11.5733 118.931 11.584V12.672C118.771 12.6933 118.643 12.704 118.547 12.704C118.461 12.7147 118.376 12.72 118.291 12.72C118.024 12.72 117.795 12.64 117.603 12.48C117.411 12.3093 117.309 12.1013 117.299 11.856L117.267 10.88C116.904 11.4987 116.413 11.9787 115.795 12.32C115.187 12.6613 114.52 12.832 113.795 12.832C112.024 12.832 111.139 11.664 111.139 9.328Z" fill="#21354D"/>
<path d="M120.716 12.672V10.88H121.9V12.672H120.716Z" fill="#21354D"/>
<path d="M127.446 12.832C126.614 12.832 125.878 12.6347 125.238 12.24C124.598 11.8453 124.097 11.3173 123.734 10.656C123.371 9.99467 123.19 9.27467 123.19 8.496C123.19 7.70667 123.371 6.98667 123.734 6.336C124.097 5.68534 124.598 5.16267 125.238 4.768C125.889 4.37334 126.63 4.176 127.462 4.176C128.305 4.176 129.035 4.37867 129.654 4.784C130.283 5.17867 130.769 5.70134 131.11 6.35201C131.462 6.99201 131.638 7.68534 131.638 8.432C131.638 8.66667 131.627 8.848 131.606 8.976H124.678C124.721 9.52 124.87 10.0053 125.126 10.432C125.393 10.848 125.734 11.1787 126.15 11.424C126.566 11.6587 127.014 11.776 127.494 11.776C128.006 11.776 128.486 11.648 128.934 11.392C129.393 11.136 129.707 10.8 129.878 10.384L131.094 10.72C130.827 11.3387 130.363 11.8453 129.702 12.24C129.041 12.6347 128.289 12.832 127.446 12.832ZM124.63 8H130.326C130.283 7.456 130.129 6.976 129.862 6.56C129.595 6.144 129.254 5.81867 128.838 5.584C128.422 5.34934 127.963 5.232 127.462 5.232C126.971 5.232 126.518 5.34934 126.102 5.584C125.686 5.81867 125.345 6.144 125.078 6.56C124.822 6.976 124.673 7.456 124.63 8Z" fill="#21354D"/>
<path d="M132.659 8.512C132.659 7.72267 132.819 7.00267 133.139 6.35201C133.47 5.69067 133.918 5.16267 134.483 4.768C135.059 4.37334 135.715 4.176 136.451 4.176C137.123 4.176 137.726 4.352 138.259 4.704C138.792 5.056 139.208 5.48267 139.507 5.984V0.992004H140.915V11.072C140.915 11.4027 141.064 11.5733 141.363 11.584V12.672C141.096 12.7147 140.888 12.736 140.739 12.736C140.462 12.736 140.216 12.64 140.003 12.448C139.8 12.256 139.699 12.0427 139.699 11.808V11.104C139.368 11.6373 138.926 12.0587 138.371 12.368C137.816 12.6773 137.24 12.832 136.643 12.832C135.875 12.832 135.187 12.6347 134.579 12.24C133.982 11.8347 133.512 11.3067 133.171 10.656C132.83 9.99467 132.659 9.28 132.659 8.512ZM139.507 9.744V7.344C139.379 6.98134 139.171 6.656 138.883 6.368C138.595 6.06934 138.27 5.83467 137.907 5.664C137.555 5.48267 137.203 5.392 136.851 5.392C136.307 5.392 135.827 5.54134 135.411 5.84C135.006 6.13867 134.686 6.528 134.451 7.00801C134.227 7.48801 134.115 7.99467 134.115 8.528C134.115 9.08267 134.238 9.59467 134.483 10.064C134.739 10.5333 135.086 10.912 135.523 11.2C135.96 11.4773 136.446 11.616 136.979 11.616C137.32 11.616 137.672 11.536 138.035 11.376C138.398 11.2053 138.718 10.976 138.995 10.688C139.272 10.4 139.443 10.0853 139.507 9.744Z" fill="#21354D"/>
<path d="M143.186 9.328V4.32H144.594V9.056C144.594 10.7627 145.186 11.616 146.37 11.616C146.946 11.616 147.484 11.4347 147.986 11.072C148.498 10.6987 148.876 10.192 149.122 9.552V4.32H150.53V11.072C150.53 11.4027 150.679 11.5733 150.978 11.584V12.672C150.818 12.6933 150.69 12.704 150.594 12.704C150.508 12.7147 150.423 12.72 150.338 12.72C150.071 12.72 149.842 12.64 149.65 12.48C149.458 12.3093 149.356 12.1013 149.346 11.856L149.314 10.88C148.951 11.4987 148.46 11.9787 147.842 12.32C147.234 12.6613 146.567 12.832 145.842 12.832C144.071 12.832 143.186 11.664 143.186 9.328Z" fill="#21354D"/>
</svg>
