<svg width="124" height="16" viewBox="0 0 124 16" fill="none" xmlns="http://www.w3.org/2000/svg">
<path d="M5.056 6.504V7.656H3.168V9.704H1.888V7.656H0V6.504H1.888V4.456H3.168V6.504H5.056Z" fill="#21354D"/>
<path d="M12.6722 11.48V12.76H6.92825V11.48H9.20025V5.24C9.08292 5.4 8.86958 5.58134 8.56025 5.784C8.25092 5.976 7.91492 6.14134 7.55225 6.28C7.18958 6.41867 6.86958 6.488 6.59225 6.488V5.144C6.82692 5.144 7.08292 5.08 7.36025 4.952C7.64825 4.81334 7.92558 4.65334 8.19225 4.472C8.45892 4.29067 8.68292 4.12 8.86425 3.96C9.05625 3.8 9.16825 3.688 9.20025 3.624H10.6403V11.48H12.6722Z" fill="#21354D"/>
<path d="M17.7783 7.224C17.7783 6.136 17.9969 5.06934 18.4342 4.024C18.8822 2.97867 19.4209 1.92267 20.0503 0.856003L21.1383 1.336C20.9356 1.63467 20.7169 2.01334 20.4823 2.472C20.2476 2.93067 20.0236 3.432 19.8103 3.976C19.5969 4.52 19.4209 5.07467 19.2823 5.64C19.1543 6.20534 19.0903 6.74934 19.0903 7.272C19.0903 8.11467 19.2716 9.02134 19.6343 9.992C19.9969 10.952 20.4876 11.9173 21.1063 12.888L20.0662 13.432C19.3942 12.4293 18.8449 11.4053 18.4183 10.36C17.9916 9.304 17.7783 8.25867 17.7783 7.224Z" fill="#21354D"/>
<path d="M27.1575 14.792V12.088H22.0215V10.84L27.6055 3.624H28.5655V10.808H29.9735V12.088H28.5655V14.792H27.1575ZM23.4775 10.808H27.3015V5.8L23.4775 10.808Z" fill="#21354D"/>
<path d="M37.3754 11.48V12.76H31.6314V11.48H33.9034V5.24C33.786 5.4 33.5727 5.58134 33.2634 5.784C32.954 5.976 32.618 6.14134 32.2554 6.28C31.8927 6.41867 31.5727 6.488 31.2954 6.488V5.144C31.53 5.144 31.786 5.08 32.0634 4.952C32.3514 4.81334 32.6287 4.65334 32.8954 4.472C33.162 4.29067 33.386 4.12 33.5674 3.96C33.7594 3.8 33.8714 3.688 33.9034 3.624H35.3434V11.48H37.3754Z" fill="#21354D"/>
<path d="M38.4505 12.76C38.4505 12.184 38.5145 11.6613 38.6425 11.192C38.7812 10.712 39.0372 10.2587 39.4105 9.832C39.7945 9.40534 40.3438 8.98934 41.0585 8.584C41.4852 8.34934 41.9118 8.12534 42.3385 7.912C42.7758 7.688 43.1385 7.44267 43.4265 7.176C43.7252 6.89867 43.8745 6.57334 43.8745 6.2C43.8745 5.82667 43.7092 5.48534 43.3785 5.176C43.0585 4.86667 42.5892 4.712 41.9705 4.712C41.5545 4.712 41.1812 4.78667 40.8505 4.936C40.5198 5.07467 40.2372 5.24534 40.0025 5.448C39.7785 5.64 39.5972 5.816 39.4585 5.976L38.5785 4.984C38.6958 4.856 38.9145 4.67467 39.2345 4.44C39.5545 4.19467 39.9652 3.97067 40.4665 3.768C40.9678 3.56534 41.5492 3.464 42.2105 3.464C42.8718 3.464 43.4372 3.58134 43.9065 3.816C44.3865 4.04 44.7545 4.34934 45.0105 4.744C45.2665 5.128 45.3945 5.56 45.3945 6.04C45.3945 6.456 45.3038 6.81867 45.1225 7.128C44.9518 7.43734 44.7278 7.70934 44.4505 7.944C44.1838 8.17867 43.9012 8.38134 43.6025 8.552C43.3145 8.712 43.0532 8.85067 42.8185 8.968C42.1785 9.288 41.6612 9.57067 41.2665 9.816C40.8718 10.0507 40.5732 10.296 40.3705 10.552C40.1678 10.808 40.0185 11.1173 39.9225 11.48H45.5705V12.76H38.4505Z" fill="#21354D"/>
<path d="M50.181 7.224C50.181 8.25867 49.9677 9.304 49.541 10.36C49.1143 11.4053 48.565 12.4293 47.893 13.432L46.853 12.888C47.4717 11.9173 47.9623 10.952 48.325 9.992C48.6877 9.02134 48.869 8.11467 48.869 7.272C48.869 6.74934 48.7997 6.20534 48.661 5.64C48.533 5.07467 48.3623 4.52 48.149 3.976C47.9357 3.432 47.7117 2.93067 47.477 2.472C47.2423 2.01334 47.0237 1.63467 46.821 1.336L47.909 0.856003C48.5383 1.92267 49.0717 2.97867 49.509 4.024C49.957 5.06934 50.181 6.136 50.181 7.224Z" fill="#21354D"/>
<path d="M55.5911 12.76C55.5911 12.184 55.6551 11.6613 55.7831 11.192C55.9218 10.712 56.1778 10.2587 56.5511 9.832C56.9351 9.40534 57.4845 8.98934 58.1991 8.584C58.6258 8.34934 59.0525 8.12534 59.4791 7.912C59.9165 7.688 60.2791 7.44267 60.5671 7.176C60.8658 6.89867 61.0151 6.57334 61.0151 6.2C61.0151 5.82667 60.8498 5.48534 60.5191 5.176C60.1991 4.86667 59.7298 4.712 59.1111 4.712C58.6951 4.712 58.3218 4.78667 57.9911 4.936C57.6605 5.07467 57.3778 5.24534 57.1431 5.448C56.9191 5.64 56.7378 5.816 56.5991 5.976L55.7191 4.984C55.8365 4.856 56.0551 4.67467 56.3751 4.44C56.6951 4.19467 57.1058 3.97067 57.6071 3.768C58.1085 3.56534 58.6898 3.464 59.3511 3.464C60.0125 3.464 60.5778 3.58134 61.0471 3.816C61.5271 4.04 61.8951 4.34934 62.1511 4.744C62.4071 5.128 62.5351 5.56 62.5351 6.04C62.5351 6.456 62.4445 6.81867 62.2631 7.128C62.0925 7.43734 61.8685 7.70934 61.5911 7.944C61.3245 8.17867 61.0418 8.38134 60.7431 8.552C60.4551 8.712 60.1938 8.85067 59.9591 8.968C59.3191 9.288 58.8018 9.57067 58.4071 9.816C58.0125 10.0507 57.7138 10.296 57.5111 10.552C57.3085 10.808 57.1591 11.1173 57.0631 11.48H62.7111V12.76H55.5911Z" fill="#21354D"/>
<path d="M72.4576 9C72.4576 9.72534 72.2763 10.3867 71.9136 10.984C71.5616 11.5707 71.0763 12.04 70.4576 12.392C69.8496 12.744 69.1616 12.92 68.3936 12.92C67.583 12.92 66.8683 12.728 66.2496 12.344C65.631 11.9493 65.1456 11.384 64.7936 10.648C64.4523 9.912 64.2816 9.03734 64.2816 8.024C64.2816 5.784 64.671 4.10934 65.4496 3C66.2283 1.88 67.2576 1.32 68.5376 1.32C69.2736 1.32 69.9403 1.50134 70.5376 1.864C71.1456 2.216 71.6203 2.70667 71.9616 3.336L71.0976 4.184C70.863 3.68267 70.5163 3.288 70.0576 3C69.599 2.70134 69.087 2.552 68.5216 2.552C67.647 2.552 66.9483 2.94134 66.4256 3.72C65.903 4.49867 65.631 5.592 65.6096 7C65.8443 6.44534 66.223 6.00267 66.7456 5.672C67.279 5.34134 67.8763 5.176 68.5376 5.176C69.2736 5.176 69.935 5.34667 70.5216 5.688C71.119 6.02934 71.5883 6.488 71.9296 7.064C72.2816 7.64 72.4576 8.28534 72.4576 9ZM68.4096 11.704C68.9003 11.704 69.3483 11.5813 69.7536 11.336C70.1696 11.0907 70.5003 10.7653 70.7456 10.36C70.991 9.944 71.1136 9.49067 71.1136 9C71.1136 8.50934 70.991 8.06134 70.7456 7.656C70.5003 7.25067 70.1696 6.92534 69.7536 6.68C69.3483 6.43467 68.9003 6.312 68.4096 6.312C67.919 6.312 67.4656 6.43467 67.0496 6.68C66.6443 6.92534 66.319 7.25067 66.0736 7.656C65.8283 8.06134 65.7056 8.50934 65.7056 9C65.7056 9.49067 65.8283 9.944 66.0736 10.36C66.319 10.7653 66.6443 11.0907 67.0496 11.336C67.4656 11.5813 67.919 11.704 68.4096 11.704Z" fill="#21354D"/>
<path d="M81.9527 9.544C81.9527 10.216 81.7661 10.8027 81.3927 11.304C81.0301 11.8053 80.5394 12.1947 79.9207 12.472C79.3127 12.7493 78.6461 12.888 77.9207 12.888C77.1634 12.888 76.4861 12.7387 75.8887 12.44C75.2914 12.1307 74.8167 11.72 74.4647 11.208C74.1234 10.696 73.9527 10.12 73.9527 9.48C73.9527 9.01067 74.0594 8.58934 74.2728 8.216C74.4861 7.84267 74.7527 7.528 75.0727 7.272C75.4034 7.00534 75.7394 6.808 76.0807 6.68C75.6114 6.47734 75.2007 6.17334 74.8487 5.768C74.5074 5.36267 74.3367 4.89867 74.3367 4.376C74.3367 3.896 74.4434 3.47467 74.6567 3.112C74.8701 2.73867 75.1527 2.424 75.5047 2.168C75.8567 1.912 76.2461 1.72 76.6727 1.592C77.0994 1.464 77.5261 1.4 77.9527 1.4C78.3794 1.4 78.8061 1.464 79.2327 1.592C79.6594 1.72 80.0487 1.912 80.4007 2.168C80.7634 2.41334 81.0514 2.72267 81.2647 3.096C81.4781 3.45867 81.5847 3.88 81.5847 4.36C81.5847 4.88267 81.4087 5.352 81.0567 5.768C80.7047 6.17334 80.2887 6.47734 79.8087 6.68C80.3847 6.904 80.8861 7.26667 81.3127 7.768C81.7394 8.25867 81.9527 8.85067 81.9527 9.544ZM75.7607 4.424C75.7607 4.79734 75.8727 5.11734 76.0967 5.384C76.3207 5.65067 76.6034 5.85334 76.9447 5.992C77.2861 6.12 77.6221 6.184 77.9527 6.184C78.2941 6.184 78.6301 6.11467 78.9607 5.976C79.3021 5.83734 79.5847 5.63467 79.8087 5.368C80.0327 5.10134 80.1447 4.776 80.1447 4.392C80.1447 4.02934 80.0381 3.72 79.8247 3.464C79.6221 3.208 79.3501 3.01067 79.0087 2.872C78.6781 2.73334 78.3207 2.664 77.9367 2.664C77.5634 2.664 77.2061 2.73867 76.8647 2.888C76.5341 3.02667 76.2674 3.22934 76.0648 3.496C75.8621 3.752 75.7607 4.06134 75.7607 4.424ZM80.5287 9.448C80.5287 8.98934 80.3954 8.6 80.1287 8.28C79.8727 7.94934 79.5474 7.69867 79.1527 7.528C78.7581 7.35734 78.3527 7.272 77.9367 7.272C77.5101 7.272 77.0994 7.36267 76.7048 7.544C76.3207 7.72534 76.0061 7.98134 75.7607 8.312C75.5154 8.632 75.3927 9.016 75.3927 9.464C75.3927 9.912 75.5207 10.296 75.7767 10.616C76.0327 10.936 76.3581 11.1867 76.7527 11.368C77.1581 11.5387 77.5634 11.624 77.9688 11.624C78.3954 11.624 78.8007 11.5333 79.1847 11.352C79.5794 11.1707 79.8994 10.9147 80.1447 10.584C80.4007 10.2533 80.5287 9.87467 80.5287 9.448Z" fill="#21354D"/>
<path d="M83.7552 9.032V7.752H88.4753V9.032H83.7552Z" fill="#21354D"/>
<path d="M95.2064 4.728H89.3664V3.432H97.4304L91.7184 14.792H90.1184L95.2064 4.728Z" fill="#21354D"/>
<path d="M101.47 15.144C100.659 15.144 99.9288 14.952 99.2781 14.568C98.6275 14.184 98.1368 13.672 97.8061 13.032L98.6861 12.264C98.9848 12.7547 99.3795 13.1493 99.8701 13.448C100.371 13.7467 100.91 13.896 101.486 13.896C101.977 13.896 102.414 13.7893 102.798 13.576C103.182 13.3627 103.486 13.0693 103.71 12.696C103.934 12.312 104.046 11.8747 104.046 11.384C104.046 10.904 103.934 10.4827 103.71 10.12C103.497 9.75734 103.203 9.47467 102.83 9.272C102.467 9.06934 102.057 8.968 101.598 8.968C101.139 8.968 100.707 9.06934 100.302 9.272C99.9075 9.47467 99.5821 9.76267 99.3261 10.136H98.0621L99.3421 3.624H104.862V4.92H100.382L99.6941 8.536C99.9288 8.29067 100.222 8.09867 100.574 7.96C100.937 7.81067 101.337 7.736 101.774 7.736C102.478 7.736 103.107 7.89067 103.662 8.2C104.227 8.50934 104.67 8.936 104.99 9.48C105.321 10.024 105.486 10.6533 105.486 11.368C105.486 12.1147 105.305 12.7707 104.942 13.336C104.59 13.912 104.11 14.3547 103.502 14.664C102.894 14.984 102.217 15.144 101.47 15.144Z" fill="#21354D"/>
<path d="M110.236 15.144C109.425 15.144 108.694 14.952 108.044 14.568C107.393 14.184 106.902 13.672 106.572 13.032L107.452 12.264C107.75 12.7547 108.145 13.1493 108.636 13.448C109.137 13.7467 109.676 13.896 110.252 13.896C110.742 13.896 111.18 13.7893 111.564 13.576C111.948 13.3627 112.252 13.0693 112.476 12.696C112.7 12.312 112.812 11.8747 112.812 11.384C112.812 10.904 112.7 10.4827 112.476 10.12C112.262 9.75734 111.969 9.47467 111.596 9.272C111.233 9.06934 110.822 8.968 110.364 8.968C109.905 8.968 109.473 9.06934 109.068 9.272C108.673 9.47467 108.348 9.76267 108.092 10.136H106.828L108.108 3.624H113.628V4.92H109.148L108.46 8.536C108.694 8.29067 108.988 8.09867 109.34 7.96C109.702 7.81067 110.102 7.736 110.54 7.736C111.244 7.736 111.873 7.89067 112.428 8.2C112.993 8.50934 113.436 8.936 113.756 9.48C114.086 10.024 114.252 10.6533 114.252 11.368C114.252 12.1147 114.07 12.7707 113.708 13.336C113.356 13.912 112.876 14.3547 112.268 14.664C111.66 14.984 110.982 15.144 110.236 15.144Z" fill="#21354D"/>
<path d="M123.801 9C123.801 9.72534 123.62 10.3867 123.257 10.984C122.905 11.5707 122.42 12.04 121.801 12.392C121.193 12.744 120.505 12.92 119.737 12.92C118.927 12.92 118.212 12.728 117.593 12.344C116.975 11.9493 116.489 11.384 116.137 10.648C115.796 9.912 115.625 9.03734 115.625 8.024C115.625 5.784 116.015 4.10934 116.793 3C117.572 1.88 118.601 1.32 119.881 1.32C120.617 1.32 121.284 1.50134 121.881 1.864C122.489 2.216 122.964 2.70667 123.305 3.336L122.441 4.184C122.207 3.68267 121.86 3.288 121.401 3C120.943 2.70134 120.431 2.552 119.865 2.552C118.991 2.552 118.292 2.94134 117.769 3.72C117.247 4.49867 116.975 5.592 116.953 7C117.188 6.44534 117.567 6.00267 118.089 5.672C118.623 5.34134 119.22 5.176 119.881 5.176C120.617 5.176 121.279 5.34667 121.865 5.688C122.463 6.02934 122.932 6.488 123.273 7.064C123.625 7.64 123.801 8.28534 123.801 9ZM119.753 11.704C120.244 11.704 120.692 11.5813 121.097 11.336C121.513 11.0907 121.844 10.7653 122.089 10.36C122.335 9.944 122.457 9.49067 122.457 9C122.457 8.50934 122.335 8.06134 122.089 7.656C121.844 7.25067 121.513 6.92534 121.097 6.68C120.692 6.43467 120.244 6.312 119.753 6.312C119.263 6.312 118.809 6.43467 118.393 6.68C117.988 6.92534 117.663 7.25067 117.417 7.656C117.172 8.06134 117.049 8.50934 117.049 9C117.049 9.49067 117.172 9.944 117.417 10.36C117.663 10.7653 117.988 11.0907 118.393 11.336C118.809 11.5813 119.263 11.704 119.753 11.704Z" fill="#21354D"/>
</svg>
